<mxfile host="app.diagrams.net" modified="2021-09-01T12:26:27.822Z" agent="5.0 (Windows)" etag="ddvlALDoiOubElPX8l4m" version="15.0.4" type="github">
  <diagram id="1NwKvylYKqytlh_KcuwA" name="Page-1">
    <mxGraphModel dx="1022" dy="404" grid="1" gridSize="10" guides="1" tooltips="1" connect="1" arrows="1" fold="1" page="1" pageScale="1" pageWidth="850" pageHeight="1100" math="0" shadow="0">
      <root>
        <mxCell id="0" />
        <mxCell id="1" parent="0" />
        <mxCell id="4_6SmDx5OLkURn-B1NR8-1" value="Target Doctor" style="whiteSpace=wrap;html=1;aspect=fixed;" vertex="1" parent="1">
          <mxGeometry x="100" y="50" width="110" height="110" as="geometry" />
        </mxCell>
        <mxCell id="4_6SmDx5OLkURn-B1NR8-3" value="Non Target Doctor" style="whiteSpace=wrap;html=1;aspect=fixed;" vertex="1" parent="1">
          <mxGeometry x="360" y="50" width="110" height="110" as="geometry" />
        </mxCell>
        <mxCell id="4_6SmDx5OLkURn-B1NR8-4" value="" style="verticalLabelPosition=bottom;html=1;verticalAlign=top;align=center;strokeColor=none;fillColor=#00BEF2;shape=mxgraph.azure.website_generic;pointerEvents=1;" vertex="1" parent="1">
          <mxGeometry x="270" y="200" width="50" height="42.5" as="geometry" />
        </mxCell>
        <mxCell id="4_6SmDx5OLkURn-B1NR8-7" value="" style="endArrow=classic;html=1;entryX=0.9;entryY=0.259;entryDx=0;entryDy=0;entryPerimeter=0;exitX=0.345;exitY=1.009;exitDx=0;exitDy=0;exitPerimeter=0;" edge="1" parent="1" source="4_6SmDx5OLkURn-B1NR8-3" target="4_6SmDx5OLkURn-B1NR8-4">
          <mxGeometry width="50" height="50" relative="1" as="geometry">
            <mxPoint x="420" y="210" as="sourcePoint" />
            <mxPoint x="470" y="160" as="targetPoint" />
            <Array as="points">
              <mxPoint x="370" y="211" />
            </Array>
          </mxGeometry>
        </mxCell>
        <mxCell id="4_6SmDx5OLkURn-B1NR8-8" value="" style="endArrow=classic;html=1;entryX=0.14;entryY=0.612;entryDx=0;entryDy=0;entryPerimeter=0;exitX=0.345;exitY=1.009;exitDx=0;exitDy=0;exitPerimeter=0;" edge="1" parent="1" target="4_6SmDx5OLkURn-B1NR8-4">
          <mxGeometry width="50" height="50" relative="1" as="geometry">
            <mxPoint x="210.00000000000006" y="160" as="sourcePoint" />
            <mxPoint x="127.05000000000001" y="210.01750000000004" as="targetPoint" />
            <Array as="points">
              <mxPoint x="182.05" y="210.01" />
              <mxPoint x="230" y="220" />
            </Array>
          </mxGeometry>
        </mxCell>
      </root>
    </mxGraphModel>
  </diagram>
</mxfile>
